<svg xmlns="http://www.w3.org/2000/svg" xmlns:xlink="http://www.w3.org/1999/xlink" width="500" zoomAndPan="magnify" viewBox="0 0 375 374.999991" height="500" preserveAspectRatio="xMidYMid meet" version="1.0"><defs><clipPath id="3bcc851a52"><path d="M 132.269531 93.734375 L 242.519531 93.734375 L 242.519531 214.484375 L 132.269531 214.484375 Z M 132.269531 93.734375 " clip-rule="nonzero"/></clipPath></defs><rect x="-37.5" width="450" fill="#ffffff" y="-37.499999" height="449.999989" fill-opacity="1"/><rect x="-37.5" width="450" fill="#ffffff" y="-37.499999" height="449.999989" fill-opacity="1"/><g clip-path="url(#3bcc851a52)"><path fill="#880ed4" d="M 203.957031 204.667969 C 203.855469 204.597656 203.785156 204.527344 203.714844 204.460938 C 200.925781 201.5 198.585938 198.296875 196.589844 194.957031 C 194.523438 194.199219 188.015625 191.410156 179.269531 183.390625 C 174.933594 183.800781 155.753906 183.59375 150.867188 148.546875 C 150.726562 147.582031 151.382812 146.722656 152.347656 146.582031 C 152.519531 146.550781 152.726562 146.582031 152.898438 146.617188 C 154.480469 146.824219 176.414062 150.441406 181.441406 180.738281 C 186.640625 185.523438 190.941406 188.3125 193.902344 189.929688 C 192.5625 187.039062 191.425781 184.144531 190.496094 181.21875 C 190.460938 181.117188 190.425781 181.011719 190.390625 180.910156 C 185.605469 165.796875 185.914062 150.992188 186.15625 146.171875 C 183.539062 145.652344 180.957031 144.519531 178.582031 142.863281 C 175.828125 140.9375 173.382812 138.285156 171.488281 135.015625 C 169.597656 131.742188 168.527344 128.300781 168.21875 124.925781 C 167.910156 121.414062 168.460938 118.039062 169.769531 115.113281 C 170.078125 114.390625 170.871094 114.011719 171.628906 114.117188 C 174.761719 114.460938 177.929688 115.699219 180.785156 117.695312 C 181.335938 116.457031 181.992188 115.320312 182.75 114.253906 C 183.953125 112.566406 185.398438 111.121094 186.984375 109.949219 C 187.636719 109.503906 188.464844 109.535156 189.050781 109.984375 C 191.632812 111.84375 193.765625 114.496094 195.246094 117.695312 C 196.347656 116.90625 197.519531 116.25 198.6875 115.734375 C 200.582031 114.839844 202.546875 114.289062 204.507812 114.117188 C 205.265625 114.046875 205.953125 114.460938 206.265625 115.113281 C 207.570312 118.039062 208.089844 121.414062 207.777344 124.925781 C 207.46875 128.300781 206.4375 131.742188 204.542969 135.015625 C 204.507812 135.050781 204.507812 135.082031 204.472656 135.117188 C 202.613281 138.320312 200.167969 140.9375 197.449219 142.863281 C 195.003906 144.550781 192.355469 145.722656 189.632812 146.238281 C 189.425781 149.886719 189.152344 160.527344 191.734375 172.476562 C 192.664062 168.617188 194.28125 163.832031 196.96875 159.117188 C 196.039062 155.464844 193.695312 140.25 217.007812 135.910156 C 217.9375 135.738281 218.867188 136.359375 219.039062 137.320312 L 219.039062 137.390625 C 219.039062 137.425781 221.859375 155.84375 199.929688 160.871094 C 195.003906 169.582031 194.007812 178.707031 193.835938 180.394531 C 195.175781 184.492188 196.933594 188.621094 199.171875 192.511719 C 199.238281 192.582031 199.273438 192.683594 199.308594 192.753906 C 201.132812 195.886719 203.304688 198.882812 205.851562 201.636719 L 239.246094 201.636719 L 239.246094 128.058594 L 187.5 97.488281 L 135.75 128.058594 L 135.75 201.636719 L 184.847656 201.636719 C 185.8125 201.636719 186.570312 202.429688 186.570312 203.394531 C 186.570312 204.324219 185.8125 205.113281 184.847656 205.113281 L 134.03125 205.113281 C 133.066406 205.113281 132.273438 204.324219 132.273438 203.394531 L 132.273438 127.0625 C 132.273438 126.476562 132.582031 125.890625 133.136719 125.582031 L 186.605469 93.972656 C 187.121094 93.664062 187.808594 93.628906 188.394531 93.972656 L 241.761719 125.511719 C 242.347656 125.789062 242.726562 126.371094 242.726562 127.0625 L 242.726562 203.394531 C 242.726562 204.324219 241.933594 205.113281 240.96875 205.113281 L 209.5 205.113281 C 212.082031 207.351562 214.976562 209.316406 218.28125 210.96875 C 219.140625 211.414062 219.484375 212.449219 219.039062 213.308594 C 218.625 214.167969 217.558594 214.511719 216.695312 214.066406 C 211.703125 211.550781 207.46875 208.351562 203.957031 204.667969 Z M 199.929688 154.570312 C 201.855469 151.988281 204.199219 149.511719 207.019531 147.410156 C 207.777344 146.824219 208.878906 146.960938 209.464844 147.753906 C 210.050781 148.511719 209.878906 149.613281 209.121094 150.199219 C 206.675781 152.023438 204.609375 154.125 202.890625 156.394531 C 214.21875 152.265625 215.628906 143.554688 215.699219 139.730469 C 202.476562 142.796875 200.03125 149.957031 199.929688 154.570312 Z M 175.585938 179.878906 C 171.316406 175.539062 166.636719 169.996094 161.710938 163.007812 C 161.160156 162.214844 161.367188 161.113281 162.160156 160.597656 C 162.949219 160.046875 164.019531 160.21875 164.570312 161.007812 C 168.941406 167.277344 173.140625 172.300781 176.964844 176.332031 C 172.144531 157.464844 159.851562 152.023438 154.6875 150.542969 C 158.683594 174.367188 169.664062 179.085938 175.585938 179.878906 Z M 186.914062 142.691406 L 186.949219 142.691406 L 186.949219 142.625 L 186.984375 142.589844 L 186.984375 142.484375 L 187.019531 142.484375 L 187.019531 142.382812 L 187.050781 142.28125 L 187.085938 142.210938 L 187.085938 142.175781 L 187.121094 142.109375 L 187.121094 142.074219 L 187.15625 142.003906 L 187.15625 141.902344 L 187.191406 141.867188 L 187.191406 141.796875 L 187.222656 141.761719 C 187.222656 141.660156 187.257812 141.523438 187.292969 141.382812 L 187.328125 141.316406 L 187.328125 141.246094 L 187.363281 141.210938 L 187.363281 141.039062 L 187.394531 140.972656 L 187.429688 140.867188 C 187.429688 140.800781 187.429688 140.730469 187.464844 140.660156 L 187.464844 140.523438 L 187.5 140.453125 L 187.5 140.351562 L 187.535156 140.25 L 187.535156 140.109375 L 187.570312 140.007812 L 187.570312 139.902344 L 187.601562 139.835938 L 187.601562 139.59375 L 187.636719 139.492188 L 187.636719 139.25 L 187.671875 139.214844 L 187.671875 138.835938 L 187.707031 138.734375 L 187.707031 138.183594 L 187.742188 138.042969 L 187.742188 137.632812 C 187.742188 137.5625 187.742188 137.460938 187.742188 137.390625 L 187.742188 136.976562 L 187.707031 136.941406 L 187.707031 136.324219 L 187.671875 136.21875 L 187.671875 135.910156 L 187.636719 135.773438 L 187.636719 135.632812 L 187.601562 135.53125 L 187.601562 135.257812 L 187.570312 135.117188 L 187.570312 134.980469 L 187.535156 134.980469 L 187.535156 134.84375 L 187.5 134.703125 L 187.5 134.566406 L 187.464844 134.464844 L 187.464844 134.328125 L 187.429688 134.328125 L 187.429688 134.152344 L 187.394531 134.050781 C 187.363281 133.914062 187.363281 133.808594 187.328125 133.671875 L 187.328125 133.601562 L 187.292969 133.5 L 187.257812 133.363281 L 187.222656 133.257812 L 187.222656 133.222656 L 187.191406 133.15625 L 187.191406 133.085938 L 187.15625 132.984375 L 187.15625 132.949219 L 187.121094 132.847656 L 187.121094 132.742188 L 187.085938 132.707031 L 187.085938 132.640625 L 187.050781 132.535156 L 187.019531 132.433594 C 186.984375 132.328125 186.984375 132.261719 186.949219 132.15625 L 186.914062 132.054688 L 186.914062 132.019531 L 186.878906 131.917969 L 186.878906 131.882812 L 186.84375 131.777344 L 186.8125 131.742188 L 186.777344 131.640625 L 186.777344 131.605469 L 186.742188 131.539062 L 186.742188 131.46875 L 186.707031 131.367188 L 186.671875 131.226562 L 186.640625 131.191406 L 186.570312 130.988281 L 186.535156 130.917969 L 186.535156 130.847656 L 186.5 130.816406 C 186.464844 130.710938 186.464844 130.640625 186.433594 130.574219 L 186.398438 130.539062 L 186.363281 130.4375 L 186.363281 130.402344 L 186.328125 130.296875 L 186.292969 130.261719 L 186.261719 130.160156 L 186.261719 130.125 L 186.191406 130.023438 L 186.15625 129.886719 L 186.15625 129.851562 L 186.089844 129.78125 L 186.089844 129.710938 L 186.054688 129.644531 L 186.019531 129.609375 L 185.984375 129.507812 L 185.984375 129.472656 L 185.914062 129.367188 L 185.914062 129.335938 L 185.882812 129.230469 L 185.847656 129.195312 L 185.8125 129.09375 L 185.8125 129.058594 L 185.742188 128.957031 L 185.710938 128.921875 L 185.675781 128.816406 L 185.640625 128.78125 L 185.640625 128.714844 L 185.570312 128.644531 L 185.570312 128.578125 L 185.539062 128.507812 L 185.503906 128.4375 L 185.46875 128.371094 L 185.433594 128.335938 L 185.398438 128.230469 L 185.363281 128.164062 L 185.332031 128.164062 L 185.296875 128.058594 L 185.261719 127.992188 L 185.226562 127.921875 L 185.191406 127.855469 L 185.160156 127.785156 L 185.089844 127.714844 L 185.089844 127.648438 L 185.019531 127.578125 L 185.019531 127.542969 L 184.953125 127.441406 L 184.917969 127.40625 L 184.917969 127.371094 L 184.847656 127.269531 L 184.78125 127.164062 L 184.78125 127.128906 L 184.710938 127.027344 L 184.675781 126.992188 L 184.640625 126.925781 L 184.640625 126.890625 L 184.609375 126.855469 L 184.574219 126.785156 C 184.023438 125.925781 183.4375 125.097656 182.816406 124.308594 C 182.402344 123.824219 182.023438 123.378906 181.578125 122.929688 L 181.542969 122.894531 C 180.683594 122 179.753906 121.207031 178.789062 120.554688 C 176.757812 119.144531 174.621094 118.179688 172.453125 117.765625 C 171.730469 119.832031 171.488281 122.207031 171.695312 124.617188 C 171.9375 127.476562 172.867188 130.46875 174.484375 133.257812 C 176.101562 136.082031 178.238281 138.355469 180.578125 140.007812 C 182.574219 141.417969 184.746094 142.347656 186.914062 142.796875 Z M 183.574219 120.003906 C 183.746094 120.175781 183.953125 120.382812 184.125 120.554688 L 184.195312 120.625 C 184.640625 121.105469 185.089844 121.585938 185.503906 122.105469 C 186.292969 123.066406 187.019531 124.101562 187.707031 125.238281 L 187.773438 125.375 L 187.773438 125.410156 L 187.878906 125.546875 C 187.878906 125.582031 187.914062 125.617188 187.914062 125.648438 L 187.945312 125.648438 L 187.980469 125.753906 L 188.015625 125.820312 L 188.085938 125.890625 L 188.121094 125.960938 L 188.1875 126.097656 L 188.257812 126.234375 L 188.324219 126.371094 L 188.359375 126.40625 L 188.394531 126.511719 L 188.429688 126.578125 L 188.5 126.683594 L 188.5 126.71875 C 188.566406 126.820312 188.601562 126.925781 188.671875 127.027344 L 188.738281 127.164062 L 188.808594 127.300781 L 188.808594 127.335938 L 188.875 127.441406 L 188.875 127.507812 L 188.945312 127.613281 L 188.980469 127.648438 L 189.015625 127.75 L 189.050781 127.820312 L 189.082031 127.921875 L 189.117188 127.957031 L 189.152344 128.09375 L 189.222656 128.230469 L 189.222656 128.265625 L 189.289062 128.40625 L 189.289062 128.4375 L 189.359375 128.542969 L 189.359375 128.578125 L 189.425781 128.714844 L 189.425781 128.75 L 189.496094 128.886719 L 189.53125 129.023438 L 189.566406 129.023438 L 189.601562 129.160156 L 189.601562 129.195312 L 189.667969 129.335938 L 189.738281 129.472656 L 189.738281 129.507812 L 189.773438 129.644531 L 189.804688 129.679688 L 189.839844 129.78125 L 189.839844 129.851562 L 189.875 129.953125 L 189.910156 129.988281 L 189.945312 130.089844 L 189.945312 130.160156 L 190.011719 130.261719 L 190.011719 130.296875 L 190.046875 130.4375 L 190.082031 130.574219 L 190.117188 130.609375 L 190.152344 130.746094 L 190.183594 130.847656 L 190.183594 130.882812 L 190.21875 130.988281 L 190.253906 131.054688 L 190.253906 131.125 L 190.289062 131.226562 L 190.289062 131.261719 L 190.324219 131.367188 L 190.355469 131.433594 L 190.390625 131.539062 L 190.390625 131.570312 L 190.425781 131.675781 L 190.425781 131.710938 L 190.460938 131.8125 L 190.496094 131.917969 L 190.496094 132.054688 L 190.53125 132.15625 L 190.5625 132.296875 L 190.5625 132.328125 L 190.597656 132.46875 L 190.632812 132.535156 C 190.632812 132.640625 190.667969 132.707031 190.703125 132.777344 L 190.703125 132.8125 L 190.734375 132.949219 L 190.734375 133.121094 L 190.769531 133.257812 L 190.804688 133.328125 L 190.804688 133.429688 L 190.839844 133.570312 L 190.875 133.707031 L 190.875 133.742188 L 190.90625 133.878906 L 190.90625 134.050781 L 190.941406 134.1875 L 190.941406 134.222656 L 190.976562 134.359375 L 190.976562 134.53125 L 191.011719 134.671875 L 191.046875 134.84375 L 191.046875 134.980469 L 191.082031 135.152344 L 191.082031 135.289062 L 191.113281 135.460938 L 191.113281 135.773438 L 191.148438 135.773438 L 191.148438 136.253906 L 191.183594 136.289062 L 191.183594 137.046875 L 191.21875 137.082031 L 191.21875 138.078125 L 191.183594 138.148438 L 191.183594 138.664062 L 191.183594 138.628906 L 191.253906 138.5625 L 191.253906 138.527344 L 191.320312 138.421875 L 191.320312 138.390625 L 191.390625 138.320312 L 191.390625 138.285156 L 191.425781 138.25 L 191.425781 138.21875 L 191.460938 138.183594 L 191.460938 138.148438 L 191.492188 138.113281 L 191.527344 138.078125 L 191.527344 138.011719 L 191.597656 137.941406 L 191.597656 137.90625 L 191.632812 137.871094 L 191.664062 137.804688 L 191.664062 137.769531 L 191.699219 137.769531 L 191.734375 137.667969 L 191.734375 137.632812 L 191.769531 137.632812 L 191.769531 137.5625 L 191.804688 137.527344 L 191.835938 137.492188 L 191.835938 137.425781 L 191.871094 137.425781 L 191.871094 137.390625 L 191.90625 137.355469 L 191.90625 137.289062 L 191.941406 137.253906 L 191.976562 137.183594 L 191.976562 137.148438 L 192.042969 137.082031 L 192.042969 137.046875 L 192.078125 136.910156 C 193.316406 134.328125 194.007812 131.296875 194.007812 128.027344 L 194.007812 127.886719 C 193.972656 124.6875 193.285156 121.726562 192.078125 119.144531 C 191.082031 116.9375 189.667969 115.046875 188.015625 113.597656 C 187.121094 114.355469 186.292969 115.253906 185.570312 116.285156 C 184.78125 117.386719 184.125 118.625 183.574219 120.003906 Z M 196.519531 121.070312 C 197.105469 123.136719 197.449219 125.304688 197.484375 127.578125 L 197.484375 127.714844 C 197.484375 127.820312 197.484375 127.921875 197.484375 128.027344 C 197.484375 131.8125 196.65625 135.324219 195.246094 138.390625 L 195.246094 138.421875 L 195.210938 138.457031 L 195.175781 138.527344 L 195.144531 138.59375 L 195.144531 138.664062 L 195.109375 138.664062 L 195.074219 138.769531 L 195.074219 138.800781 L 195.039062 138.800781 L 195.003906 138.90625 L 195.003906 138.941406 L 194.972656 138.941406 L 194.972656 138.972656 L 194.9375 139.042969 L 194.902344 139.078125 L 194.902344 139.113281 L 194.867188 139.148438 L 194.867188 139.214844 L 194.796875 139.320312 L 194.765625 139.386719 L 194.730469 139.421875 L 194.730469 139.457031 L 194.660156 139.523438 L 194.660156 139.59375 L 194.625 139.628906 L 194.59375 139.664062 L 194.59375 139.699219 L 194.558594 139.765625 L 194.523438 139.800781 L 194.523438 139.835938 L 194.488281 139.871094 L 194.453125 139.902344 L 194.453125 139.972656 L 194.421875 139.972656 L 194.421875 140.007812 L 194.386719 140.042969 L 194.386719 140.074219 L 194.351562 140.109375 L 194.316406 140.179688 L 194.316406 140.214844 L 194.28125 140.25 L 194.246094 140.28125 L 194.246094 140.316406 L 194.179688 140.421875 L 194.144531 140.453125 L 194.109375 140.523438 L 194.074219 140.558594 L 194.042969 140.660156 L 194.007812 140.695312 L 193.972656 140.765625 L 193.9375 140.800781 L 193.902344 140.832031 L 193.902344 140.902344 L 193.871094 140.9375 L 193.835938 140.972656 L 193.800781 141.003906 L 193.800781 141.039062 C 194.351562 140.730469 194.902344 140.386719 195.453125 140.007812 C 197.757812 138.355469 199.859375 136.117188 201.476562 133.363281 C 201.511719 133.328125 201.511719 133.292969 201.546875 133.257812 C 203.164062 130.46875 204.058594 127.476562 204.335938 124.617188 C 204.542969 122.207031 204.265625 119.832031 203.578125 117.765625 C 202.40625 117.972656 201.273438 118.351562 200.136719 118.867188 C 198.863281 119.453125 197.65625 120.175781 196.519531 121.070312 Z M 196.519531 121.070312 " fill-opacity="1" fill-rule="evenodd"/></g></svg>